<?xml version="1.0" standalone="no"?>
<!DOCTYPE svg PUBLIC "-//W3C//DTD SVG 20010904//EN"
 "http://www.w3.org/TR/2001/REC-SVG-20010904/DTD/svg10.dtd">
<svg version="1.0" xmlns="http://www.w3.org/2000/svg"
 width="250.000000pt" height="250.000000pt" viewBox="0 0 250.000000 250.000000"
 preserveAspectRatio="xMidYMid meet">

<g transform="translate(0.000000,250.000000) scale(0.100000,-0.100000)"
fill="#000000" stroke="none">
<path d="M988 2236 c-35 -18 -211 -120 -393 -225 -369 -215 -413 -249 -471
-366 -88 -178 -58 -377 78 -521 91 -97 201 -144 333 -144 99 0 171 24 307 103
168 97 175 99 244 100 90 1 165 -39 218 -115 33 -49 39 -66 43 -125 6 -84 -18
-151 -75 -205 -46 -44 -480 -296 -542 -315 -55 -17 -127 -10 -183 18 -33 17
-37 23 -26 33 8 7 149 91 314 186 165 95 310 182 322 193 45 40 35 129 -16
157 -50 26 -76 14 -465 -211 -209 -122 -389 -228 -398 -237 -10 -8 -21 -31
-24 -50 -9 -49 23 -108 95 -174 130 -119 311 -155 472 -94 31 11 166 84 299
161 268 155 327 203 379 306 49 97 60 196 39 334 -2 15 28 37 157 112 178 103
227 143 258 211 29 64 29 169 1 233 -48 103 -142 163 -259 163 -85 0 -48 18
-555 -277 -534 -311 -527 -307 -604 -307 -114 0 -219 77 -251 184 -19 62 -19
90 0 152 26 90 62 119 348 284 144 84 277 161 295 172 l33 20 -3 -97 -3 -96
-240 -139 c-132 -77 -248 -149 -257 -161 -26 -32 -23 -92 6 -126 20 -23 32
-28 68 -27 38 0 98 32 488 258 245 142 468 269 495 282 311 143 672 -131 616
-468 -26 -161 -98 -247 -301 -368 -78 -46 -150 -95 -161 -108 -17 -22 -19 -42
-19 -202 l0 -178 -137 -78 c-164 -94 -193 -119 -193 -168 0 -51 43 -98 92 -99
56 -1 396 196 420 244 15 28 18 62 18 201 l0 168 108 62 c149 86 254 191 310
308 52 110 66 173 66 290 -1 381 -338 676 -718 629 -101 -13 -192 -48 -336
-132 l-115 -67 -5 147 c-3 82 -9 154 -14 162 -8 13 -66 41 -85 41 -5 0 -38
-15 -73 -34z m763 -695 c35 -35 37 -71 7 -105 -33 -36 -320 -200 -334 -189 -9
7 -61 45 -120 88 -10 8 24 32 142 100 273 157 258 152 305 106z"/>
</g>
</svg>
